HIERARCHY
ROOT Hips
{
    OFFSET   0.000000   0.000000   0.000000
    CHANNELS 6 Xposition Yposition Zposition Zrotation Xrotation Yrotation
    JOINT Chest
    {
        OFFSET   0.000000   8.007240   0.000000
        CHANNELS 3 Zrotation Xrotation Yrotation
        JOINT Chest2
        {
            OFFSET   0.000000  22.077100   0.000000
            CHANNELS 3 Zrotation Xrotation Yrotation
            JOINT Neck
            {
                OFFSET   0.000000  23.254800   0.000000
                CHANNELS 3 Zrotation Xrotation Yrotation
                JOINT Head
                {
                    OFFSET   0.000000  14.370000   1.956600
                    CHANNELS 3 Zrotation Xrotation Yrotation
                    End Site
                    {
                        OFFSET   0.000000  19.566000   0.000000
                    }
                }
            }
            JOINT LeftCollar
            {
                OFFSET   3.911900  19.017000  -0.467064
                CHANNELS 3 Zrotation Xrotation Yrotation
                JOINT LeftShoulder
                {
                    OFFSET  10.383700   0.000000   0.000000
                    CHANNELS 3 Zrotation Xrotation Yrotation
                    JOINT LeftElbow
                    {
                        OFFSET  26.662100   0.001476   0.000517
                        CHANNELS 3 Zrotation Xrotation Yrotation
                        JOINT LeftWrist
                        {
                            OFFSET  28.869000  -0.000025  -0.000106
                            CHANNELS 3 Zrotation Xrotation Yrotation
                            JOINT LeftFinger0
                            {
                                OFFSET   2.044660  -2.323460   3.252850
                                CHANNELS 3 Zrotation Xrotation Yrotation
                                JOINT LeftFinger01
                                {
                                    OFFSET   3.088130   0.000000   0.000000
                                    CHANNELS 3 Zrotation Xrotation Yrotation
                                    JOINT LeftFinger02
                                    {
                                        OFFSET   2.639460   0.000000   0.000000
                                        CHANNELS 3 Zrotation Xrotation Yrotation
                                        End Site
                                        {
                                            OFFSET   2.582190   0.000000   0.000000
                                        }
                                    }
                                }
                            }
                            JOINT LeftFinger1
                            {
                                OFFSET   8.364480   0.000000   3.252850
                                CHANNELS 3 Zrotation Xrotation Yrotation
                                JOINT LeftFinger11
                                {
                                    OFFSET   4.646930   0.000000   0.000000
                                    CHANNELS 3 Zrotation Xrotation Yrotation
                                    JOINT LeftFinger12
                                    {
                                        OFFSET   2.323460   0.000000   0.000000
                                        CHANNELS 3 Zrotation Xrotation Yrotation
                                        End Site
                                        {
                                            OFFSET   2.273050   0.000000   0.000000
                                        }
                                    }
                                }
                            }
                            JOINT LeftFinger2
                            {
                                OFFSET   8.364490   0.000015   1.078090
                                CHANNELS 3 Zrotation Xrotation Yrotation
                                JOINT LeftFinger21
                                {
                                    OFFSET   5.111620   0.000000   0.000000
                                    CHANNELS 3 Zrotation Xrotation Yrotation
                                    JOINT LeftFinger22
                                    {
                                        OFFSET   2.788160   0.000016   0.000000
                                        CHANNELS 3 Zrotation Xrotation Yrotation
                                        End Site
                                        {
                                            OFFSET   2.727660   0.000000   0.000000
                                        }
                                    }
                                }
                            }
                            JOINT LeftFinger3
                            {
                                OFFSET   7.899780   0.000017  -1.078090
                                CHANNELS 3 Zrotation Xrotation Yrotation
                                JOINT LeftFinger31
                                {
                                    OFFSET   4.646930   0.000000   0.000000
                                    CHANNELS 3 Zrotation Xrotation Yrotation
                                    JOINT LeftFinger32
                                    {
                                        OFFSET   2.323470   0.000000   0.000000
                                        CHANNELS 3 Zrotation Xrotation Yrotation
                                        End Site
                                        {
                                            OFFSET   2.273050   0.000000   0.000000
                                        }
                                    }
                                }
                            }
                            JOINT LeftFinger4
                            {
                                OFFSET   7.435090   0.000000  -3.252850
                                CHANNELS 3 Zrotation Xrotation Yrotation
                                JOINT LeftFinger41
                                {
                                    OFFSET   3.717550   0.000000   0.000000
                                    CHANNELS 3 Zrotation Xrotation Yrotation
                                    JOINT LeftFinger42
                                    {
                                        OFFSET   1.858770   0.000000   0.000000
                                        CHANNELS 3 Zrotation Xrotation Yrotation
                                        End Site
                                        {
                                            OFFSET   1.818440   0.000000   0.000000
                                        }
                                    }
                                }
                            }
                        }
                    }
                }
            }
            JOINT RightCollar
            {
                OFFSET  -3.911900  19.017000  -0.467063
                CHANNELS 3 Zrotation Xrotation Yrotation
                JOINT RightShoulder
                {
                    OFFSET -10.383700   0.000019   0.000000
                    CHANNELS 3 Zrotation Xrotation Yrotation
                    JOINT RightElbow
                    {
                        OFFSET -26.662100   0.001175   0.000102
                        CHANNELS 3 Zrotation Xrotation Yrotation
                        JOINT RightWrist
                        {
                            OFFSET -28.869000   0.000016  -0.000079
                            CHANNELS 3 Zrotation Xrotation Yrotation
                            JOINT RightFinger0
                            {
                                OFFSET  -2.044660  -2.323490   3.252850
                                CHANNELS 3 Zrotation Xrotation Yrotation
                                JOINT RightFinger01
                                {
                                    OFFSET  -3.088140   0.000000   0.000000
                                    CHANNELS 3 Zrotation Xrotation Yrotation
                                    JOINT RightFinger02
                                    {
                                        OFFSET  -2.639460   0.000000   0.000000
                                        CHANNELS 3 Zrotation Xrotation Yrotation
                                        End Site
                                        {
                                            OFFSET  -2.582190   0.000000   0.000000
                                        }
                                    }
                                }
                            }
                            JOINT RightFinger1
                            {
                                OFFSET  -8.364480   0.000000   3.252850
                                CHANNELS 3 Zrotation Xrotation Yrotation
                                JOINT RightFinger11
                                {
                                    OFFSET  -4.646930   0.000000   0.000000
                                    CHANNELS 3 Zrotation Xrotation Yrotation
                                    JOINT RightFinger12
                                    {
                                        OFFSET  -2.323470   0.000000   0.000000
                                        CHANNELS 3 Zrotation Xrotation Yrotation
                                        End Site
                                        {
                                            OFFSET  -2.273050   0.000000   0.000000
                                        }
                                    }
                                }
                            }
                            JOINT RightFinger2
                            {
                                OFFSET  -8.364480   0.000000   1.078090
                                CHANNELS 3 Zrotation Xrotation Yrotation
                                JOINT RightFinger21
                                {
                                    OFFSET  -5.111620   0.000000   0.000000
                                    CHANNELS 3 Zrotation Xrotation Yrotation
                                    JOINT RightFinger22
                                    {
                                        OFFSET  -2.788160   0.000000   0.000000
                                        CHANNELS 3 Zrotation Xrotation Yrotation
                                        End Site
                                        {
                                            OFFSET  -2.727660   0.000000   0.000000
                                        }
                                    }
                                }
                            }
                            JOINT RightFinger3
                            {
                                OFFSET  -7.899780   0.000000  -1.078090
                                CHANNELS 3 Zrotation Xrotation Yrotation
                                JOINT RightFinger31
                                {
                                    OFFSET  -4.646930   0.000000   0.000000
                                    CHANNELS 3 Zrotation Xrotation Yrotation
                                    JOINT RightFinger32
                                    {
                                        OFFSET  -2.323470   0.000000   0.000000
                                        CHANNELS 3 Zrotation Xrotation Yrotation
                                        End Site
                                        {
                                            OFFSET  -2.273050   0.000000   0.000000
                                        }
                                    }
                                }
                            }
                            JOINT RightFinger4
                            {
                                OFFSET  -7.435090   0.000000  -3.252850
                                CHANNELS 3 Zrotation Xrotation Yrotation
                                JOINT RightFinger41
                                {
                                    OFFSET  -3.717550   0.000000   0.000000
                                    CHANNELS 3 Zrotation Xrotation Yrotation
                                    JOINT RightFinger42
                                    {
                                        OFFSET  -1.858770   0.000000   0.000000
                                        CHANNELS 3 Zrotation Xrotation Yrotation
                                        End Site
                                        {
                                            OFFSET  -1.818440   0.000000   0.000000
                                        }
                                    }
                                }
                            }
                        }
                    }
                }
            }
        }
    }
    JOINT LeftHip
    {
        OFFSET   9.783040   0.000000   0.000000
        CHANNELS 3 Zrotation Xrotation Yrotation
        JOINT LeftKnee
        {
            OFFSET   0.000032 -41.789100  -0.002222
            CHANNELS 3 Zrotation Xrotation Yrotation
            JOINT LeftAnkle
            {
                OFFSET   0.000087 -41.133200  -0.000135
                CHANNELS 3 Zrotation Xrotation Yrotation
                JOINT LeftToe
                {
                    OFFSET   0.000000  -6.358960  14.674500
                    CHANNELS 3 Zrotation Xrotation Yrotation
                    End Site
                    {
                        OFFSET   0.000000   0.000000   3.913200
                    }
                }
            }
        }
    }
    JOINT RightHip
    {
        OFFSET  -9.783040   0.000000   0.000000
        CHANNELS 3 Zrotation Xrotation Yrotation
        JOINT RightKnee
        {
            OFFSET   0.000047 -41.789100  -0.000896
            CHANNELS 3 Zrotation Xrotation Yrotation
            JOINT RightAnkle
            {
                OFFSET  -0.000117 -41.133300  -0.000248
                CHANNELS 3 Zrotation Xrotation Yrotation
                JOINT RightToe
                {
                    OFFSET   0.000000  -6.358970  14.674500
                    CHANNELS 3 Zrotation Xrotation Yrotation
                    End Site
                    {
                        OFFSET   0.000000   0.000000   3.913200
                    }
                }
            }
        }
    }
}
MOTION
Frames: 5
Frame Time:   0.016667
 -2.896320  89.364900   0.907583  -2.489750  -7.734330  -0.149737   1.357490   5.390200  -1.163320   2.844140  10.750000  -2.471670   1.230240  -0.797185   0.015221   2.025040  -1.614380   6.126220  -7.433540   2.070260   1.565460 -69.457100  21.327300 -11.453300  -2.568320  -3.749400 -10.977000   7.777090  -3.887310  13.268800  42.944400  30.940800 -65.606600 -22.374300   0.006397   0.002716  -6.185200  -0.001704   0.001652 -32.969100   6.713230 -10.216300 -27.465300   0.000367   0.008938 -19.225700  -0.002433   0.005040 -28.515000   3.158750  -5.791260 -38.576500   0.000448  -0.004359 -25.691900   0.006527  -0.006408 -28.667000   1.058820  -1.936190 -38.663100  -0.000335   0.001215 -25.749600   0.002659  -0.006053 -37.719700  -0.448863   0.579532 -56.583200  -0.001636  -0.016791 -37.684400   0.000099  -0.004082   9.090350  -0.568914  11.822800  67.853600  10.521800  -0.549419   0.169823  -4.010740  10.845600 -10.219900 -11.366300   7.260760 -33.619200  28.183600  60.620800  37.039200   0.001760  -0.008020  13.519600   0.004567  -0.002329  25.286000   2.028590   4.285280  20.750600   0.007178  -0.007782  14.525500   0.003022  -0.008691  29.473800   1.694340   2.994940  44.277100   0.000192   0.011094  29.488600   0.010625   0.001028  48.545500   2.131310   1.881510  54.361000  -0.002157  -0.002203  39.490100   0.010788  -0.004994  52.266400  -5.436590  -4.201350  78.699500  -0.001861   0.007078  52.413900   0.001306  -0.005412   4.194050  12.157100   1.756360   1.573060   0.336712   8.108520  -3.846940  -4.190670  -0.906288  -0.000000   0.000000   0.000000   3.196020   5.958740  -2.712020   2.139960   5.061750  -2.493490  -6.599720  -3.178150  -4.575110   0.000000   0.000000   0.000000
 -2.883430  89.364800   0.906485  -2.490630  -7.734340  -0.144207   1.356550   5.390020  -1.154500   2.840960  10.749900  -2.453840   1.229980  -0.796823   0.015221   2.025090  -1.613890   6.132480  -7.433160   2.057500   1.574980 -69.471300  21.309800 -11.424400  -2.572540  -3.727000 -10.983500   7.764350  -3.894860  13.235900  42.918800  30.898300 -65.590400 -22.364700   0.006403   0.002706  -6.185460  -0.001704   0.001645 -32.969700   6.719850 -10.225900 -27.467100   0.000365   0.008942 -19.227000  -0.002420   0.005047 -28.515700   3.176970  -5.823980 -38.631200   0.000450  -0.004354 -25.728400   0.006533  -0.006416 -28.666200   1.069640  -1.955810 -38.696900  -0.000336   0.001228 -25.772100   0.002668  -0.006048 -37.735200  -0.448863   0.579532 -56.606400  -0.001638  -0.016801 -37.699800   0.000070  -0.004072   9.088220  -0.582253  11.832000  67.838600  10.549900  -0.531324   0.158142  -4.027880  10.845900 -10.245000 -11.389600   7.245580 -33.623800  28.189900  60.612300  37.043000   0.001745  -0.008040  13.521500   0.004557  -0.002344  25.245800   2.018380   4.271470  20.717200   0.007172  -0.007776  14.502100   0.003018  -0.008683  29.507900   1.712830   3.024820  44.329600   0.000192   0.011098  29.523600   0.010625   0.001028  48.621400   2.124710   1.870740  54.358900  -0.002171  -0.002222  39.506100   0.010776  -0.004993  52.270400  -5.437890  -4.201310  78.705600  -0.001876   0.007075  52.417900   0.001295  -0.005402   4.194680  12.148000   1.756080   1.571400   0.347785   8.100740  -3.841410  -4.198390  -0.906145  -0.000000   0.000000  -0.000000   3.188780   5.949150  -2.712180   2.140130   5.066150  -2.493470  -6.593180  -3.177940  -4.579060   0.000000   0.000000   0.000000
 -2.862000  89.364800   0.903760  -2.492500  -7.734340  -0.132329   1.354460   5.389710  -1.140550   2.835820  10.749600  -2.425540   1.229720  -0.796461   0.015220   2.025140  -1.613410   6.138740  -7.432730   2.037790   1.588860 -69.493500  21.278500 -11.380900  -2.578460  -3.694370 -10.995000   7.745940  -3.911830  13.181800  42.880000  30.835700 -65.562600 -22.355200   0.006408   0.002691  -6.185830  -0.001704   0.001620 -32.973000   6.729930 -10.239600 -27.471800   0.000359   0.008950 -19.230300  -0.002387   0.005061 -28.518500   3.195190  -5.856700 -38.710000   0.000453  -0.004349 -25.780900   0.006544  -0.006433 -28.665500   1.080460  -1.975430 -38.747600  -0.000336   0.001261 -25.805900   0.002691  -0.006035 -37.757000  -0.448866   0.579531 -56.638900  -0.001640  -0.016828 -37.721500   0.000000  -0.004045   9.084180  -0.604616  11.842100  67.812700  10.595600  -0.499203   0.140030  -4.052430  10.846400 -10.283200 -11.426200   7.218340 -33.626800  28.198600  60.600500  37.051100   0.001721  -0.008072  13.525500   0.004535  -0.002377  25.185700   1.997630   4.239190  20.666900   0.007152  -0.007760  14.466800   0.003010  -0.008659  29.560100   1.737650   3.060430  44.409700   0.000192   0.011106  29.576900   0.010624   0.001026  48.743000   2.114130   1.853490  54.355100  -0.002207  -0.002267  39.531700   0.010744  -0.004987  52.279800  -5.441260  -4.201280  78.719800  -0.001917   0.007066  52.427300   0.001269  -0.005381   4.195310  12.138900   1.755800   1.568960   0.358864   8.086760  -3.830790  -4.206100  -0.906002   0.000000   0.000000  -0.000000   3.176570   5.932100  -2.712290   2.140520   5.075810  -2.493410  -6.582800  -3.177360  -4.589260  -0.000000   0.000000   0.000000
 -2.844780  89.364800   0.899522  -2.495850  -7.731490  -0.117461   1.350290   5.389400  -1.130820   2.826930  10.749400  -2.405520   1.231450  -0.796545   0.015238   2.028350  -1.613570   6.121560  -7.435190   2.025600   1.596740 -69.514600  21.244800 -11.354500  -2.580910  -3.675920 -11.005900   7.736580  -3.937690  13.138500  42.852300  30.797400 -65.532100 -22.361100   0.006401   0.002681  -6.186000  -0.001685   0.001567 -32.981600   6.735910 -10.245300 -27.479600   0.000351   0.008964 -19.235700  -0.002335   0.005078 -28.523600   3.192180  -5.850770 -38.751900   0.000452  -0.004352 -25.808800   0.006559  -0.006457 -28.665700   1.079350  -1.971880 -38.777400  -0.000335   0.001313 -25.825800   0.002728  -0.006010 -37.765300  -0.449563   0.581577 -56.651300  -0.001641  -0.016870 -37.729800  -0.000136  -0.004005   9.080050  -0.623328  11.843000  67.789600  10.628400  -0.469013   0.128234  -4.061540  10.845600 -10.309000 -11.455800   7.194540 -33.623400  28.205900  60.600800  37.063000   0.001704  -0.008092  13.531500   0.004511  -0.002421  25.151900   1.971790   4.191000  20.637900   0.007114  -0.007732  14.446400   0.003005  -0.008619  29.591500   1.742890   3.064250  44.457100   0.000189   0.011110  29.608400   0.010623   0.001023  48.834100   2.106200   1.840600  54.350800  -0.002264  -0.002335  39.550800   0.010693  -0.004970  52.293800  -5.446950  -4.201290  78.741100  -0.001986   0.007054  52.441500   0.001231  -0.005357   4.193760  12.149600   1.756060   1.564180   0.320772   8.073290  -3.818400  -4.186640  -0.907311  -0.000000   0.000000   0.000000   3.165870   5.915860  -2.712190   2.141120   5.088900  -2.493280  -6.575490  -3.176140  -4.605090   0.000000   0.000000   0.000000
 -2.828060  89.364800   0.894565  -2.497590  -7.727140  -0.098955   1.344660   5.389220  -1.122300   2.814350  10.749300  -2.387850   1.235310  -0.797132   0.015273   2.033890  -1.614430   6.088080  -7.439890   2.014730   1.600260 -69.537000  21.217500 -11.337800  -2.581980  -3.667630 -11.016900   7.731660  -3.962630  13.098200  42.838000  30.779300 -65.513200 -22.367100   0.006392   0.002677  -6.186070  -0.001648   0.001505 -32.991300   6.740850 -10.249000 -27.488000   0.000340   0.008981 -19.241600  -0.002269   0.005101 -28.526600   3.189160  -5.844840 -38.769600   0.000451  -0.004359 -25.820600   0.006577  -0.006486 -28.666100   1.076720  -1.965520 -38.798300  -0.000334   0.001378 -25.839700   0.002776  -0.005979 -37.769400  -0.450808   0.584600 -56.657600  -0.001642  -0.016923 -37.734000  -0.000231  -0.003956   9.075280  -0.641087  11.843300  67.765400  10.661900  -0.437236   0.118255  -4.069990  10.844800 -10.325400 -11.472600   7.164260 -33.621600  28.215100  60.606300  37.074100   0.001685  -0.008116  13.537100   0.004482  -0.002472  25.126300   1.944240   4.137540  20.615400   0.007065  -0.007695  14.430700   0.002997  -0.008568  29.618200   1.746100   3.068070  44.497500   0.000185   0.011118  29.635300   0.010622   0.001017  48.911400   2.099460   1.829680  54.346900  -0.002337  -0.002421  39.566900   0.010626  -0.004946  52.308900  -5.453120  -4.201330  78.763800  -0.002070   0.007037  52.456700   0.001182  -0.005326   4.189930  12.160400   1.756380   1.560210   0.282677   8.058870  -3.806220  -4.167180  -0.911063   0.000000   0.000000  -0.000000   3.156290   5.899070  -2.711960   2.141850   5.103930  -2.493210  -6.569060  -3.175190  -4.625010   0.000000   0.000000   0.000000
